<svg xmlns="http://www.w3.org/2000/svg" viewBox="0 0 292.82 130"><defs><style>.e6e61bc8-f521-4cd0-9085-d304ffe4dee7{fill:#0d0d0d;}</style></defs><g id="b48d31d6-dfda-4674-8123-e6c736ea90d6" data-name="Layer 2"><g id="fa102afc-3ed6-4974-b844-ec6e00278465" data-name="Layer 1"><path class="e6e61bc8-f521-4cd0-9085-d304ffe4dee7" d="M21.41,10.79a18.46,18.46,0,0,1,9.4,2.27,15.54,15.54,0,0,1,6.05,6.22A18.79,18.79,0,0,1,39,28.38q0,1.13-.09,2.13a9,9,0,0,1-.35,1.87H12.36q.09,9,3.35,12.88t9.53,3.92a15.09,15.09,0,0,0,7.05-1.43,17.52,17.52,0,0,0,5-4L38.65,45a19,19,0,0,1-7.1,7.45A20.64,20.64,0,0,1,20.89,55.1,22,22,0,0,1,10,52.49,18.42,18.42,0,0,1,2.65,45,24.5,24.5,0,0,1,0,33.17a22.43,22.43,0,0,1,3.09-12.1,21.19,21.19,0,0,1,8-7.62A21.4,21.4,0,0,1,21.41,10.79ZM21,13.32a7.06,7.06,0,0,0-4.4,1.43,9.78,9.78,0,0,0-3,5.05,41.09,41.09,0,0,0-1.26,10.14H27.94q1-8.79-.69-12.7C26.14,14.62,24.05,13.32,21,13.32Z"/><path class="e6e61bc8-f521-4cd0-9085-d304ffe4dee7" d="M62.24,54.14,46.92,17.32a5,5,0,0,0-3.4-3.13l-1.82-.44V12.1h22v1.65l-2.27.53q-2.78.69-1.65,3.56l9.14,24.29L77.47,18a4.88,4.88,0,0,0,.22-2.39c-.15-.61-.71-1-1.7-1.27l-2.52-.61V12.1H86.7v1.65l-2.87.7a4.54,4.54,0,0,0-3.4,3.13L67.29,54.14Z"/><path class="e6e61bc8-f521-4cd0-9085-d304ffe4dee7" d="M108.55,10.79a18.48,18.48,0,0,1,9.4,2.27,15.6,15.6,0,0,1,6,6.22,18.9,18.9,0,0,1,2.13,9.1q0,1.13-.09,2.13a9,9,0,0,1-.35,1.87H99.49q.09,9,3.36,12.88t9.53,3.92a15.09,15.09,0,0,0,7.05-1.43,17.48,17.48,0,0,0,5-4l1.39,1.3a19,19,0,0,1-7.09,7.45A20.67,20.67,0,0,1,108,55.1a22.06,22.06,0,0,1-10.88-2.61A18.4,18.4,0,0,1,89.79,45a24.5,24.5,0,0,1-2.66-11.79,22.43,22.43,0,0,1,3.09-12.1,21.19,21.19,0,0,1,8-7.62A21.44,21.44,0,0,1,108.55,10.79Zm-.44,2.53a7,7,0,0,0-4.39,1.43,9.71,9.71,0,0,0-3,5.05,40.54,40.54,0,0,0-1.27,10.14h15.59q.94-8.79-.7-12.7C113.28,14.62,111.19,13.32,108.11,13.32Z"/><path class="e6e61bc8-f521-4cd0-9085-d304ffe4dee7" d="M130.57,53.88V52.23l1.39-.35c1.92-.58,2.87-2,2.87-4.27V21.94a6.77,6.77,0,0,0-.61-2.83A3,3,0,0,0,132,17.76l-1.39-.35V15.84l14.1-5.05,1,1,.61,5.4a28.32,28.32,0,0,1,7-4.57A18.11,18.11,0,0,1,161,10.79q5.75,0,8.83,3.14t3.09,9.57V47.7A4,4,0,0,0,176,52l1,.26v1.65h-20V52.23l1.31-.35a4,4,0,0,0,2.87-4.27V21.76a6.35,6.35,0,0,0-1.3-4.44c-.87-.93-2.33-1.39-4.36-1.39q-4.26,0-8.88,3.74v28a4,4,0,0,0,3,4.27l.87.26v1.65Z"/><path class="e6e61bc8-f521-4cd0-9085-d304ffe4dee7" d="M196.46,55.1c-3.6,0-6.43-.89-8.48-2.65s-3.09-4.66-3.09-8.67c0-1.39,0-2.71,0-4s0-2.71,0-4.39V14.8h-6.18V12.88l2.35-.34A11.78,11.78,0,0,0,185.45,11a12.21,12.21,0,0,0,3.26-3.14L194.37,0H197l-.26,12.1h9.93v2.7h-10V44.48a7,7,0,0,0,1.35,4.7,4.21,4.21,0,0,0,3.35,1.57,6,6,0,0,0,3.13-.83,14.27,14.27,0,0,0,2.79-2.22L208.39,49a11.65,11.65,0,0,1-4.62,4.48A15.17,15.17,0,0,1,196.46,55.1Z"/><path class="e6e61bc8-f521-4cd0-9085-d304ffe4dee7" d="M0,128.78V127l1.13-.35a4.13,4.13,0,0,0,3.14-4.35V77.51a5,5,0,0,0-.61-2.74,3.82,3.82,0,0,0-2.35-1.35L0,73.07V71.42l14.71-3.75,1.39.79-.34,12.27V91.87a35.94,35.94,0,0,1,6.65-4.35,17,17,0,0,1,7.8-1.83q5.74,0,9,3.22t3.27,9.93v23.59a5,5,0,0,0,.69,2.78,4.29,4.29,0,0,0,2.44,1.57l.79.26v1.74H26.55V127l1-.35a4,4,0,0,0,3.14-4.35V97.18q0-3.57-1.22-5c-.81-.93-2.24-1.39-4.27-1.39a13.67,13.67,0,0,0-4.39.78A18.32,18.32,0,0,0,16,94.22v28.29a5,5,0,0,0,.69,2.79,3.87,3.87,0,0,0,2.35,1.48l.79.26v1.74Z"/><path class="e6e61bc8-f521-4cd0-9085-d304ffe4dee7" d="M71.64,130a22.7,22.7,0,0,1-11.27-2.7,18.68,18.68,0,0,1-7.49-7.66,24.76,24.76,0,0,1-2.65-11.84A23.6,23.6,0,0,1,53.05,96a19.59,19.59,0,0,1,7.66-7.61,23.77,23.77,0,0,1,21.85,0,19.55,19.55,0,0,1,7.66,7.57,23.42,23.42,0,0,1,2.83,11.88,25,25,0,0,1-2.65,11.88A18.35,18.35,0,0,1,83,127.34,23,23,0,0,1,71.64,130Zm0-2.44a7.44,7.44,0,0,0,5.09-1.7c1.31-1.13,2.25-3.11,2.83-6A63,63,0,0,0,80.43,108a64.37,64.37,0,0,0-.87-12.06q-.87-4.31-2.83-6a7.48,7.48,0,0,0-5.09-1.69,7.34,7.34,0,0,0-5,1.69q-1.92,1.71-2.83,6A61.34,61.34,0,0,0,62.85,108a60,60,0,0,0,.91,11.92c.61,2.85,1.55,4.83,2.83,6A7.3,7.3,0,0,0,71.64,127.56Z"/><path class="e6e61bc8-f521-4cd0-9085-d304ffe4dee7" d="M97.06,128.78v-1.65l1.3-.44a3.69,3.69,0,0,0,2.39-1.48,5.15,5.15,0,0,0,.66-2.78V96.92a6.17,6.17,0,0,0-.7-2.91,3.34,3.34,0,0,0-2.35-1.35l-1.3-.35V90.74l14.18-5,1.05,1,.78,7.66v.61a20.69,20.69,0,0,1,3.31-4.53A18.48,18.48,0,0,1,120.73,87a9.64,9.64,0,0,1,4.7-1.31,6.52,6.52,0,0,1,5,1.74,6.17,6.17,0,0,1,1.66,4.44,5.78,5.78,0,0,1-1.66,4.49,5.7,5.7,0,0,1-4,1.52,7.55,7.55,0,0,1-6-3.13l-.17-.18a3,3,0,0,0-2-1.17,2.44,2.44,0,0,0-2.13,1.08,11.68,11.68,0,0,0-1.61,2,15.21,15.21,0,0,0-1.35,2.74v22.81a5,5,0,0,0,.7,2.74,3.73,3.73,0,0,0,2.35,1.52l2.61.79v1.65Z"/><path class="e6e61bc8-f521-4cd0-9085-d304ffe4dee7" d="M135,128.78v-1.65l1.3-.35a3.82,3.82,0,0,0,2.35-1.57,6.1,6.1,0,0,0,.7-2.78v-21q0-2.3-.09-4.74a5,5,0,0,0-.65-2.74,3.51,3.51,0,0,0-2.39-1.35L135,92.31V90.74l15.23-5,1,1L151,99v23.5a5.19,5.19,0,0,0,.66,2.79,4,4,0,0,0,2.3,1.57l1,.26v1.65Zm10-47.87a7,7,0,0,1-4.88-1.83,6.37,6.37,0,0,1,0-9.27,7.53,7.53,0,0,1,9.75,0,6.37,6.37,0,0,1,0,9.27A7,7,0,0,1,145,80.91Z"/><path class="e6e61bc8-f521-4cd0-9085-d304ffe4dee7" d="M159,128.78v-1.91l23.68-37.61h-12.1a4.76,4.76,0,0,0-3.44,1.22,12.58,12.58,0,0,0-2.31,3.22l-3,5.75-2.26-.18L160.25,87h34.47v1.74l-23.16,37.69h12.63a5.27,5.27,0,0,0,3.87-1.26,12.55,12.55,0,0,0,2.31-3.44l3-6.35h2.27l-.79,13.4Z"/><path class="e6e61bc8-f521-4cd0-9085-d304ffe4dee7" d="M221,130a22.77,22.77,0,0,1-11.28-2.7,18.65,18.65,0,0,1-7.48-7.66,24.76,24.76,0,0,1-2.66-11.84A23.6,23.6,0,0,1,202.42,96a19.59,19.59,0,0,1,7.66-7.61,23.77,23.77,0,0,1,21.85,0,19.62,19.62,0,0,1,7.66,7.57,23.42,23.42,0,0,1,2.83,11.88,25.1,25.1,0,0,1-2.65,11.88,18.47,18.47,0,0,1-7.45,7.66A23,23,0,0,1,221,130Zm0-2.44a7.46,7.46,0,0,0,5.09-1.7c1.3-1.13,2.25-3.11,2.83-6A63,63,0,0,0,229.8,108a64.37,64.37,0,0,0-.87-12.06c-.58-2.87-1.53-4.87-2.83-6A7.5,7.5,0,0,0,221,88.22a7.32,7.32,0,0,0-5,1.69q-1.92,1.71-2.83,6a61.34,61.34,0,0,0-.91,12.06,60,60,0,0,0,.91,11.92c.61,2.85,1.55,4.83,2.83,6A7.28,7.28,0,0,0,221,127.56Z"/><path class="e6e61bc8-f521-4cd0-9085-d304ffe4dee7" d="M246.42,128.78v-1.65l1.4-.35q2.87-.87,2.87-4.27V96.83a6.91,6.91,0,0,0-.61-2.82,3,3,0,0,0-2.26-1.35l-1.4-.35V90.74l14.1-5,1.05,1,.61,5.4a28.13,28.13,0,0,1,7-4.57,18.1,18.1,0,0,1,7.61-1.79q5.74,0,8.84,3.14t3.09,9.57v24.2a4,4,0,0,0,3.13,4.27l1,.26v1.65h-20v-1.65l1.3-.35a4,4,0,0,0,2.88-4.27V96.66a6.35,6.35,0,0,0-1.31-4.44c-.87-.93-2.32-1.39-4.35-1.39-2.85,0-5.8,1.25-8.88,3.74v28a4,4,0,0,0,3.05,4.27l.87.26v1.65Z"/></g></g></svg>