<svg xmlns="http://www.w3.org/2000/svg" viewBox="0 0 751.39 85.85"><defs><style>.f403ab21-0be4-49f2-88b6-54c70c71f0d2{fill:#f2a905;}</style></defs><g id="b88b2c77-c4fb-41bc-b741-51ea64813c18" data-name="Layer 2"><g id="b9d9befa-15ff-4932-bd6e-de2ab590cc8e" data-name="Layer 1"><path class="f403ab21-0be4-49f2-88b6-54c70c71f0d2" d="M29.49,24.82a25.42,25.42,0,0,1,13,3.12,21.49,21.49,0,0,1,8.34,8.57A26.11,26.11,0,0,1,53.71,49q0,1.56-.12,2.94a12.73,12.73,0,0,1-.48,2.57H17q.11,12.36,4.61,17.75t13.13,5.39a20.62,20.62,0,0,0,9.71-2,23.81,23.81,0,0,0,6.84-5.57l1.91,1.8a26.21,26.21,0,0,1-9.77,10.25,28.26,28.26,0,0,1-14.68,3.66,30.31,30.31,0,0,1-15-3.6A25.25,25.25,0,0,1,3.66,71.88,33.74,33.74,0,0,1,0,55.63Q0,45.8,4.26,39a29.1,29.1,0,0,1,11-10.49A29.45,29.45,0,0,1,29.49,24.82ZM28.9,28.3a9.72,9.72,0,0,0-6.06,2q-2.58,2-4.08,7A55.5,55.5,0,0,0,17,51.2H38.49q1.32-12.12-1-17.51T28.9,28.3Z"/><path class="f403ab21-0be4-49f2-88b6-54c70c71f0d2" d="M85.73,84.53,64.62,33.81A6.81,6.81,0,0,0,60,29.5l-2.52-.6V26.62H87.77V28.9l-3.12.71q-3.84,1-2.28,4.92L95,68l11.75-33.21a6.64,6.64,0,0,0,.3-3.3q-.3-1.26-2.34-1.74l-3.48-.83V26.62h18.23V28.9l-4,1a6.22,6.22,0,0,0-4.67,4.32L92.68,84.53Z"/><path class="f403ab21-0be4-49f2-88b6-54c70c71f0d2" d="M149.51,24.82a25.45,25.45,0,0,1,13,3.12,21.46,21.46,0,0,1,8.33,8.57A26,26,0,0,1,173.73,49q0,1.56-.12,2.94a12.73,12.73,0,0,1-.48,2.57H137q.12,12.36,4.62,17.75t13.13,5.39a20.65,20.65,0,0,0,9.71-2,23.77,23.77,0,0,0,6.83-5.57l1.92,1.8a26.28,26.28,0,0,1-9.77,10.25,28.29,28.29,0,0,1-14.69,3.66,30.3,30.3,0,0,1-15-3.6,25.34,25.34,0,0,1-10.14-10.37A33.86,33.86,0,0,1,120,55.63q0-9.83,4.25-16.66a29.73,29.73,0,0,1,25.24-14.15Zm-.6,3.48a9.69,9.69,0,0,0-6,2q-2.58,2-4.08,7a55.89,55.89,0,0,0-1.74,14H158.5q1.32-12.12-.95-17.51T148.91,28.3Z"/><path class="f403ab21-0be4-49f2-88b6-54c70c71f0d2" d="M179.85,84.17V81.89l1.91-.48q4-1.2,4-5.87V40.17a9.59,9.59,0,0,0-.84-3.9,4.18,4.18,0,0,0-3.12-1.86l-1.91-.48V31.77l19.42-6.95,1.44,1.32.84,7.43a38.76,38.76,0,0,1,9.65-6.29,24.89,24.89,0,0,1,10.49-2.46q7.92,0,12.17,4.31t4.26,13.19V75.66q0,4.66,4.31,5.87l1.32.36v2.28H216.17V81.89l1.8-.48q4-1.32,4-5.87V39.93q0-4.2-1.8-6.12t-6-1.92q-5.88,0-12.23,5.16V75.66c0,3.11,1.39,5.07,4.19,5.87l1.2.36v2.28Z"/><path class="f403ab21-0be4-49f2-88b6-54c70c71f0d2" d="M270.61,85.85q-7.44,0-11.69-3.66t-4.26-11.93q0-2.88.06-5.46t.06-6V30.33h-8.51V27.7l3.24-.48a16.1,16.1,0,0,0,5.93-2.16,16.94,16.94,0,0,0,4.5-4.32L267.73,10h3.6L271,26.62h13.67v3.71H270.85V71.22c0,2.88.62,5,1.86,6.47a5.82,5.82,0,0,0,4.61,2.16,8.3,8.3,0,0,0,4.32-1.14,20.1,20.1,0,0,0,3.84-3L287,77.45a15.94,15.94,0,0,1-6.35,6.18A20.86,20.86,0,0,1,270.61,85.85Z"/><path class="f403ab21-0be4-49f2-88b6-54c70c71f0d2" d="M317.6,84.17v-2.4l1.56-.48a5.68,5.68,0,0,0,4.32-6V13.55a6.87,6.87,0,0,0-.84-3.78,5.25,5.25,0,0,0-3.24-1.86l-1.8-.48V5.16L337.87,0l1.92,1.08L339.31,18V33.33a48.1,48.1,0,0,1,9.17-6,23.38,23.38,0,0,1,10.73-2.52q7.91,0,12.41,4.43t4.49,13.67v32.5a6.79,6.79,0,0,0,1,3.83,5.88,5.88,0,0,0,3.36,2.16l1.08.36v2.4H354.17v-2.4l1.44-.48q4.32-1.2,4.32-6V40.65q0-4.92-1.68-6.84t-5.87-1.92A18.84,18.84,0,0,0,346.32,33a25.33,25.33,0,0,0-6.65,3.6v39a6.73,6.73,0,0,0,1,3.83,5.27,5.27,0,0,0,3.23,2l1.08.36v2.4Z"/><path class="f403ab21-0be4-49f2-88b6-54c70c71f0d2" d="M416.28,85.85a31.31,31.31,0,0,1-15.53-3.72,25.81,25.81,0,0,1-10.31-10.55,34.1,34.1,0,0,1-3.65-16.31A32.34,32.34,0,0,1,390.68,39a26.93,26.93,0,0,1,10.55-10.49,32.77,32.77,0,0,1,30.1,0,27,27,0,0,1,10.55,10.43q3.9,6.77,3.89,16.36a34.45,34.45,0,0,1-3.65,16.37,25.38,25.38,0,0,1-10.25,10.55A31.63,31.63,0,0,1,416.28,85.85Zm0-3.36a10.29,10.29,0,0,0,7-2.34q2.7-2.34,3.9-8.21a86.74,86.74,0,0,0,1.2-16.43,88.46,88.46,0,0,0-1.2-16.6q-1.2-5.94-3.9-8.28a10.34,10.34,0,0,0-7-2.33,10.1,10.1,0,0,0-6.95,2.33q-2.64,2.34-3.9,8.28a84.35,84.35,0,0,0-1.26,16.6,82.7,82.7,0,0,0,1.26,16.43q1.26,5.88,3.9,8.21A10.06,10.06,0,0,0,416.28,82.49Z"/><path class="f403ab21-0be4-49f2-88b6-54c70c71f0d2" d="M451.29,84.17V81.89l1.8-.6a5.09,5.09,0,0,0,3.29-2,7.14,7.14,0,0,0,.9-3.83V40.29a8.72,8.72,0,0,0-.95-4,4.64,4.64,0,0,0-3.24-1.86l-1.8-.48V31.77l19.54-6.95,1.44,1.32,1.08,10.55v.84a28.35,28.35,0,0,1,4.56-6.24,25.34,25.34,0,0,1,6-4.67,13.24,13.24,0,0,1,6.48-1.8q4.55,0,6.83,2.4a8.5,8.5,0,0,1,2.28,6.11q0,4.08-2.28,6.18a7.85,7.85,0,0,1-5.52,2.09,10.34,10.34,0,0,1-8.27-4.31l-.24-.24a4.15,4.15,0,0,0-2.7-1.62,3.39,3.39,0,0,0-2.93,1.5,16.09,16.09,0,0,0-2.22,2.82,22.07,22.07,0,0,0-1.86,3.77V74.94a6.85,6.85,0,0,0,1,3.77,5.21,5.21,0,0,0,3.24,2.1l3.59,1.08v2.28Z"/><path class="f403ab21-0be4-49f2-88b6-54c70c71f0d2" d="M503.56,84.17V81.89l1.8-.48a5.3,5.3,0,0,0,3.24-2.16,8.41,8.41,0,0,0,1-3.83v-29q0-3.18-.12-6.53a6.86,6.86,0,0,0-.9-3.78,4.85,4.85,0,0,0-3.3-1.86l-1.68-.36V31.77l21-6.95L526,26.14l-.36,17V75.54a7.26,7.26,0,0,0,.89,3.83,5.51,5.51,0,0,0,3.18,2.16l1.32.36v2.28Zm13.79-65.95a9.62,9.62,0,0,1-6.71-2.51,8.24,8.24,0,0,1-2.76-6.36,8.17,8.17,0,0,1,2.76-6.41,10.39,10.39,0,0,1,13.43,0,8.2,8.2,0,0,1,2.75,6.41,8.27,8.27,0,0,1-2.75,6.36A9.64,9.64,0,0,1,517.35,18.22Z"/><path class="f403ab21-0be4-49f2-88b6-54c70c71f0d2" d="M536.65,84.17V81.53l32.62-51.8H552.6a6.5,6.5,0,0,0-4.73,1.68,17.13,17.13,0,0,0-3.18,4.44l-4.08,7.91-3.12-.24.84-16.9h47.48V29L553.92,80.93h17.39q3.59,0,5.33-1.74a17.08,17.08,0,0,0,3.18-4.73L584,65.7h3.12l-1.08,18.47Z"/><path class="f403ab21-0be4-49f2-88b6-54c70c71f0d2" d="M622,85.85a31.31,31.31,0,0,1-15.53-3.72,25.81,25.81,0,0,1-10.31-10.55,34.1,34.1,0,0,1-3.65-16.31A32.34,32.34,0,0,1,596.42,39,26.93,26.93,0,0,1,607,28.48a32.77,32.77,0,0,1,30.1,0,27,27,0,0,1,10.55,10.43q3.9,6.77,3.9,16.36a34.46,34.46,0,0,1-3.66,16.37,25.38,25.38,0,0,1-10.25,10.55A31.63,31.63,0,0,1,622,85.85Zm0-3.36a10.33,10.33,0,0,0,7-2.34q2.69-2.34,3.89-8.21a86.74,86.74,0,0,0,1.2-16.43,88.46,88.46,0,0,0-1.2-16.6Q631.73,33,629,30.63a10.38,10.38,0,0,0-7-2.33,10.1,10.1,0,0,0-6.95,2.33q-2.64,2.34-3.9,8.28a84.35,84.35,0,0,0-1.26,16.6,82.7,82.7,0,0,0,1.26,16.43q1.26,5.88,3.9,8.21A10.06,10.06,0,0,0,622,82.49Z"/><path class="f403ab21-0be4-49f2-88b6-54c70c71f0d2" d="M657,84.17V81.89l1.92-.48q4-1.2,4-5.87V40.17a9.59,9.59,0,0,0-.84-3.9A4.18,4.18,0,0,0,659,34.41L657,33.93V31.77l19.42-6.95,1.44,1.32.84,7.43a39.13,39.13,0,0,1,9.65-6.29,25,25,0,0,1,10.5-2.46q7.9,0,12.16,4.31t4.26,13.19V75.66q0,4.66,4.32,5.87l1.32.36v2.28H693.36V81.89l1.8-.48c2.64-.88,4-2.84,4-5.87V39.93q0-4.2-1.79-6.12t-6-1.92q-5.88,0-12.23,5.16V75.66q0,4.66,4.2,5.87l1.2.36v2.28Z"/><path class="f403ab21-0be4-49f2-88b6-54c70c71f0d2" d="M741.32,85.85A9.82,9.82,0,0,1,734.18,83a9.38,9.38,0,0,1-2.93-7,9.9,9.9,0,0,1,2.93-7.19,10,10,0,0,1,14.27,0A9.91,9.91,0,0,1,751.39,76a9.39,9.39,0,0,1-2.94,7A9.82,9.82,0,0,1,741.32,85.85Z"/></g></g></svg>